<svg width="556" height="154" viewBox="0 0 556 154" fill="none" xmlns="http://www.w3.org/2000/svg">
<path d="M152.253 43.2531C134.531 43.2531 120.662 58.1461 120.662 77.3169C120.662 96.1708 134.531 110.905 152.253 110.905C169.975 110.905 183.844 96.1708 183.844 77.3169C183.998 58.1461 170.129 43.2531 152.253 43.2531ZM152.253 97.1214C142.853 97.1214 135.764 88.5658 135.764 77.3169C135.764 65.751 142.853 57.037 152.253 57.037C161.807 57.037 168.896 65.751 168.896 77.3169C168.896 88.5658 161.807 97.1214 152.253 97.1214ZM260.741 16.0021H248.875C247.95 16.0021 247.18 16.7942 247.18 17.7449V106.944C247.18 107.895 247.95 108.687 248.875 108.687H260.741C261.665 108.687 262.436 107.895 262.436 106.944V17.9033C262.59 16.9527 261.82 16.0021 260.741 16.0021ZM235.16 44.8374C232.386 44.2037 227.763 43.2531 220.828 43.2531C208.654 43.2531 196.326 47.214 196.326 67.0185V107.261C196.326 108.212 197.097 109.004 198.021 109.004H209.887C210.812 109.004 211.582 108.212 211.582 107.261C211.582 107.261 211.582 70.0288 211.582 67.4938C211.582 64.642 212.045 57.3539 222.678 57.3539C226.993 57.3539 231.307 58.1461 232.232 58.3045C233.157 58.463 233.927 58.1461 234.235 57.1955L236.855 47.3724C237.163 45.9465 236.547 45.1543 235.16 44.8374ZM113.728 45.1543H101.091C100.321 45.1543 99.5501 45.6296 99.396 46.4218L87.3761 89.9918L76.4348 51.1749C75.5102 47.5309 72.2741 44.9959 68.5756 44.9959H64.7231C61.0246 44.9959 57.7885 47.5309 56.8639 51.1749L45.9226 89.9918L33.9027 46.4218C33.7486 45.6296 32.9781 45.1543 32.2076 45.1543H19.5712C18.3384 45.1543 17.5679 46.2634 17.8761 47.5309L35.1355 102.984C36.2142 106.469 39.4503 108.846 42.9947 108.846H48.0801C51.7785 108.846 55.0147 106.311 55.9393 102.825L66.5723 65.751L77.2053 102.825C78.284 106.469 81.5202 108.846 85.0645 108.846H90.1499C93.6943 108.846 96.9304 106.469 98.0091 102.984L115.269 47.5309C115.731 46.2634 114.806 45.1543 113.728 45.1543ZM536.429 45.1543H524.409C524.409 45.1543 523.022 45.1543 522.56 46.4218L506.071 91.4177L489.582 46.4218C489.274 45.7881 488.658 45.3128 487.887 45.3128H475.867C474.172 45.3128 473.71 46.7387 474.018 47.8477L498.212 110.272L488.504 135.621C488.041 136.889 488.504 138.156 490.199 138.156H502.065C502.835 138.156 503.452 137.681 503.76 137.047L538.433 48.0062C538.741 46.2634 537.662 45.1543 536.429 45.1543ZM330.241 16.0021H318.375C317.45 16.0021 316.68 16.7942 316.68 17.7449V44.5206C314.368 44.0453 310.362 43.0947 303.735 43.0947C280.158 43.0947 275.226 64.8004 275.226 76.6831C275.226 102.984 290.637 110.747 304.968 110.747C317.296 110.747 325.618 107.737 329.624 105.994C332.09 104.885 332.09 103.459 332.09 102.191V17.9033C331.936 16.9527 331.165 16.0021 330.241 16.0021ZM316.68 95.6955C316.68 95.6955 312.057 97.1214 306.663 97.1214C294.335 97.1214 291.253 88.0905 291.253 77.4753C291.253 73.6728 290.791 57.037 306.047 57.037C311.132 57.037 316.526 58.463 316.526 58.463V95.6955H316.68ZM441.657 43.2531C431.178 43.2531 425.322 44.679 419.62 46.2634C418.079 46.7387 417.463 47.8477 417.925 49.5905L419.62 57.037C419.774 58.1461 420.853 59.572 422.548 59.0967C426.246 58.1461 431.794 56.2449 440.116 56.2449C448.437 56.2449 450.595 59.4136 450.595 67.0185H440.424C418.695 67.0185 412.685 78.7428 412.685 88.4074C412.685 100.607 418.387 110.905 438.883 110.905C454.293 110.905 461.998 106.944 463.693 105.994C465.08 105.202 465.851 104.726 465.851 102.191V65.2757C465.697 48.6399 456.142 43.2531 441.657 43.2531ZM450.286 96.6461C450.286 96.6461 445.509 98.2305 439.191 98.2305C430.407 98.2305 427.787 93.6358 427.787 88.8827C427.787 82.8621 431.64 78.9012 440.116 78.9012H450.286V96.6461ZM373.389 43.2531C361.061 43.2531 352.74 46.2634 348.733 48.0062C346.267 49.1152 346.267 50.5412 346.267 51.8086V136.097C346.267 137.047 347.038 137.84 347.963 137.84H359.828C360.753 137.84 361.524 137.047 361.524 136.097V109.479C363.835 109.955 367.842 110.905 374.468 110.905C398.046 110.905 402.977 89.1996 402.977 77.3169C403.131 50.858 387.721 43.2531 373.389 43.2531ZM372.311 96.963C367.225 96.963 361.832 95.537 361.832 95.537V58.3045C361.832 58.3045 366.455 56.8786 371.848 56.8786C384.177 56.8786 387.259 65.9095 387.259 76.5247C386.95 80.3272 387.413 96.963 372.311 96.963Z" fill="#FF1F3E"/>
</svg>
